<svg width="35" height="34" viewBox="0 0 35 34" fill="none" xmlns="http://www.w3.org/2000/svg">
<path d="M31.4296 0.721703C30.9462 0.558564 30.4394 0.475756 29.9292 0.476568H5.00532C3.7492 0.477902 2.54492 0.977703 1.65671 1.86631C0.768498 2.75491 0.268917 3.95974 0.267584 5.21642V30.1481C0.266774 30.6579 0.349548 31.1644 0.51261 31.6474L0.710645 32.2317L2.44765 30.4923L2.43422 30.3244C2.43422 30.269 2.43422 30.2119 2.43422 30.1565V5.21138C2.43511 4.52811 2.70681 3.87309 3.18974 3.38995C3.67266 2.90681 4.32739 2.63499 5.01035 2.6341H29.9292C29.9863 2.6341 30.0417 2.6341 30.097 2.6341L30.2733 2.64753L32.0103 0.908071L31.4296 0.721703Z" fill="url(#paint0_linear_43_31)"/>
<path d="M34.4212 3.7132L34.2282 3.12891L32.4895 4.86837L32.5046 5.04466C32.5046 5.10007 32.5046 5.15715 32.5046 5.21256V30.1493C32.5037 30.8325 32.232 31.4875 31.7491 31.9707C31.2662 32.4538 30.6115 32.7256 29.9285 32.7265H5.0046C4.94754 32.7265 4.89216 32.7265 4.83677 32.7265L4.66056 32.7131L2.92188 34.4526L3.50591 34.6507C3.98926 34.814 4.49612 34.8968 5.00628 34.8958H29.9285C31.1846 34.8945 32.3889 34.3947 33.2771 33.5061C34.1653 32.6175 34.6649 31.4126 34.6662 30.156V5.21256C34.667 4.70273 34.5843 4.19623 34.4212 3.7132Z" fill="url(#paint1_linear_43_31)"/>
<path d="M26.208 18.9914L28.6546 19.9231L27.4828 8L17.2365 15.5714L19.7644 16.7015C19.7644 16.7015 17.2345 27.7147 7.91602 25.7539C7.91602 25.7539 17.629 31.8781 26.208 18.9914Z" fill="url(#paint2_linear_43_31)"/>
<path d="M11.5296 24.7047C11.5296 24.7047 4.87382 22.163 6.1031 13.5488C6.1031 13.5488 1.36458 26.3424 11.5296 24.7047Z" fill="url(#paint3_linear_43_31)"/>
<defs>
<linearGradient id="paint0_linear_43_31" x1="0.267584" y1="16.3516" x2="32.0119" y2="16.3516" gradientUnits="userSpaceOnUse">
<stop stop-color="#6495ED"/>
<stop offset="1" stop-color="#DE3163"/>
</linearGradient>
<linearGradient id="paint1_linear_43_31" x1="2.9202" y1="19.009" x2="34.6662" y2="19.009" gradientUnits="userSpaceOnUse">
<stop stop-color="#6495ED"/>
<stop offset="1" stop-color="#DE3163"/>
</linearGradient>
<linearGradient id="paint2_linear_43_31" x1="7.91602" y1="17.6035" x2="28.6546" y2="17.6035" gradientUnits="userSpaceOnUse">
<stop stop-color="#6495ED"/>
<stop offset="1" stop-color="#DE3163"/>
</linearGradient>
<linearGradient id="paint3_linear_43_31" x1="5.0047" y1="19.1992" x2="11.5296" y2="19.1992" gradientUnits="userSpaceOnUse">
<stop stop-color="#6495ED"/>
<stop offset="1" stop-color="#DE3163"/>
</linearGradient>
</defs>
</svg>
